<svg xmlns="http://www.w3.org/2000/svg" fill="none" viewBox="0 0 24 24" stroke-width="1.5" stroke="#3B82F6">
  <path stroke-linecap="round" stroke-linejoin="round" d="M12 6v12m-3-2.818l.879.659c1.171.879 3.07.879 4.242 0 1.172-.879 1.172-2.303 0-3.182C13.536 12.219 12.768 12 12 12c-.725 0-1.45-.22-2.09-.659-1.172-.879-1.172-2.303 0-3.182.72-.538 1.63-.655 2.45-.252M12 12c.535 0 .954.462.9.995l-.35 3.507c-.035.346-.32.622-.65.622s-.615-.276-.65-.622l-.35-3.507c-.054-.533.365-.995.9-.995z" />
</svg>
